<?xml version="1.0" encoding="UTF-8" standalone="no"?>
<!DOCTYPE svg PUBLIC "-//W3C//DTD SVG 1.1//EN" "http://www.w3.org/Graphics/SVG/1.1/DTD/svg11.dtd">
<svg width="100%" height="100%" viewBox="0 0 32 32" version="1.1" xmlns="http://www.w3.org/2000/svg" xmlns:xlink="http://www.w3.org/1999/xlink" xml:space="preserve" xmlns:serif="http://www.serif.com/" style="fill-rule:evenodd;clip-rule:evenodd;stroke-linejoin:round;stroke-miterlimit:2;">
    <g transform="matrix(1.10208,0,0,1.10208,-295.052,-414.777)">
        <text x="274.261px" y="399.933px" style="font-family:'ArialRoundedMTBold', 'Arial Rounded MT Bold', sans-serif;font-size:16px;fill:white;stroke:white;stroke-width:0.18px;">\</text>
    </g>
    <g id="path3947" transform="matrix(1.245,0,0,1.38659,12.8347,10.4117)">
        <path d="M11.063,12.289C8.897,14.002 5.752,13.635 4.039,11.469C3.868,11.253 3.554,11.216 3.337,11.387C3.12,11.558 3.084,11.873 3.255,12.089C5.311,14.688 9.084,15.129 11.683,13.073L11.913,12.891L11.725,14.502C11.693,14.776 11.89,15.024 12.164,15.056C12.438,15.088 12.687,14.892 12.719,14.618L13.046,11.808C13.078,11.534 12.882,11.286 12.608,11.254L9.798,10.926C9.524,10.894 9.276,11.09 9.244,11.364C9.212,11.639 9.408,11.887 9.682,11.919L11.292,12.107L11.063,12.289Z" style="fill:white;fill-rule:nonzero;stroke:white;stroke-width:0.59px;"/>
    </g>
    <g id="path39471" serif:id="path3947" transform="matrix(-1.245,-1.52469e-16,1.69808e-16,-1.38659,32.7649,36.7867)">
        <path d="M11.063,12.289C8.897,14.002 5.752,13.635 4.039,11.469C3.868,11.253 3.554,11.216 3.337,11.387C3.12,11.558 3.084,11.873 3.255,12.089C5.311,14.688 9.084,15.129 11.683,13.073L11.913,12.891L11.725,14.502C11.693,14.776 11.89,15.024 12.164,15.056C12.438,15.088 12.687,14.892 12.719,14.618L13.046,11.808C13.078,11.534 12.882,11.286 12.608,11.254L9.798,10.926C9.524,10.894 9.276,11.09 9.244,11.364C9.212,11.639 9.408,11.887 9.682,11.919L11.292,12.107L11.063,12.289Z" style="fill:white;fill-rule:nonzero;stroke:white;stroke-width:0.59px;"/>
    </g>
    <g transform="matrix(1.11495,0,0,1.11495,-218.34,-313.605)">
        <path d="M210.854,308.046L202.488,308.046C200.502,308.046 198.873,306.418 198.873,304.431L198.873,286.46C198.873,284.505 200.452,282.895 202.396,282.845L205.519,282.845L205.519,284.738L202.488,284.738C201.518,284.738 200.767,285.49 200.767,286.46L200.767,304.431C200.767,305.402 201.518,306.152 202.488,306.152L209.4,306.152C209.781,306.858 210.273,307.497 210.854,308.046Z" style="fill:white;"/>
    </g>
    <g transform="matrix(1.11495,0,0,1.11495,-218.34,-313.605)">
        <path d="M217.72,294.946L217.72,286.46C217.72,285.49 216.967,284.738 215.997,284.738L213.16,284.738L213.16,282.845L215.997,282.845C217.984,282.845 219.614,284.474 219.614,286.46L219.614,295.545C219.023,295.261 218.388,295.054 217.72,294.946Z" style="fill:white;"/>
    </g>
    <g id="rect177-2" transform="matrix(1.11495,0,0,1.11495,-218.34,-313.605)">
        <path d="M213.16,283.067C213.16,282.572 212.758,282.17 212.263,282.17L206.417,282.17C205.922,282.17 205.52,282.572 205.52,283.067L205.52,284.533C205.52,285.028 205.922,285.43 206.417,285.43L212.263,285.43C212.758,285.43 213.16,285.028 213.16,284.533L213.16,283.067Z" style="fill:none;stroke:white;stroke-width:1.4px;stroke-linejoin:miter;stroke-miterlimit:4;"/>
    </g>
</svg>
